# xmcd
#
# Track frame offsets: 
#        150
#        27224
#        53870
#        71864
#        101081
#        120773
#        146825
#        183508
#
# Disc length: 2720 seconds
#
# Revision: 0
# Processed by: cddbd v1.5.2PL0 Copyright (c) Steve Scherf et al.
# Submitted via: ExactAudioCopy v0.99pb3
#
DISCID=700a9e08
DTITLE=Slim Bawb and Jeff Hogan - Udu Swamp
DYEAR=2011
DGENRE=Blues
TTITLE0=Udu Swamp
TTITLE1=Wind and Rain
TTITLE2=Dem Bones
TTITLE3=Jack's Beanstick
TTITLE4=Empty Chair
TTITLE5=Donkey Train
TTITLE6=Happy Jungle
TTITLE7=Steel Blade
EXTD=
EXTT0=
EXTT1=
EXTT2=
EXTT3=
EXTT4=
EXTT5=
EXTT6=
EXTT7=
PLAYORDER=
